<?xml version="1.0" encoding="UTF-8" standalone="no"?><!-- Generator: Gravit.io --><svg xmlns="http://www.w3.org/2000/svg" xmlns:xlink="http://www.w3.org/1999/xlink" style="isolation:isolate" viewBox="0 0 127 32" width="127pt" height="32pt"><defs><clipPath id="_clipPath_mbtsv6P7osMk7mH85oVUMDkzK2zGwY5P"><rect width="127" height="32"/></clipPath></defs><g clip-path="url(#_clipPath_mbtsv6P7osMk7mH85oVUMDkzK2zGwY5P)"><path d=" M 10.252 19.446 C 10.282 19.187 10.517 19.001 10.776 19.031 C 11.035 19.061 11.221 19.295 11.191 19.554 C 11.161 19.814 10.927 20 10.668 19.97 C 10.409 19.94 10.222 19.705 10.252 19.446 Z " fill="none" vector-effect="non-scaling-stroke" stroke-width="1.8" stroke="rgb(55,53,53)" stroke-linejoin="miter" stroke-linecap="square" stroke-miterlimit="3"/><path d=" M 16.651 23.848 C 16.681 23.588 16.915 23.402 17.175 23.432 C 17.434 23.462 17.62 23.696 17.59 23.956 C 17.56 24.215 17.326 24.401 17.067 24.371 C 16.807 24.341 16.621 24.107 16.651 23.848 Z " fill="none" vector-effect="non-scaling-stroke" stroke-width="1.8" stroke="rgb(55,53,53)" stroke-linejoin="miter" stroke-linecap="square" stroke-miterlimit="3"/><path d=" M 15.692 10.912 C 15.722 10.653 15.956 10.467 16.216 10.496 C 16.475 10.527 16.661 10.761 16.631 11.02 C 16.601 11.279 16.367 11.465 16.108 11.435 C 15.848 11.406 15.662 11.171 15.692 10.912 Z " fill="none" vector-effect="non-scaling-stroke" stroke-width="1.8" stroke="rgb(55,53,53)" stroke-linejoin="miter" stroke-linecap="square" stroke-miterlimit="3"/><path d=" M 19.42 17.402 C 19.449 17.142 19.684 16.956 19.943 16.986 C 20.202 17.016 20.388 17.25 20.358 17.51 C 20.329 17.769 20.094 17.955 19.835 17.925 C 19.576 17.895 19.39 17.661 19.42 17.402 Z " fill="none" vector-effect="non-scaling-stroke" stroke-width="1.8" stroke="rgb(55,53,53)" stroke-linejoin="miter" stroke-linecap="square" stroke-miterlimit="3"/><path d=" M 14.065 2.994 C 12.699 2.994 11.343 3.198 10.035 3.602 C 9.477 3.774 9.031 4.193 8.824 4.738 C 8.618 5.283 8.674 5.893 8.977 6.391 C 9.566 7.357 9.808 8.462 9.679 9.585 C 9.386 12.13 7.237 14.05 4.681 14.05 C 4.487 14.05 4.29 14.038 4.095 14.016 C 3.707 13.971 3.322 13.88 2.949 13.745 C 2.74 13.669 2.522 13.632 2.305 13.632 C 1.954 13.632 1.605 13.73 1.3 13.922 C 0.806 14.231 0.484 14.751 0.425 15.331 C 0.058 18.939 1.107 22.483 3.38 25.311 C 5.654 28.143 8.894 29.931 12.503 30.346 C 13.028 30.407 13.561 30.437 14.087 30.437 C 21.052 30.437 26.905 25.213 27.703 18.285 C 28.569 10.769 23.158 3.95 15.642 3.084 C 15.12 3.024 14.589 2.994 14.065 2.994 Z  M 14.065 4.884 C 14.515 4.884 14.969 4.909 15.426 4.962 C 21.917 5.71 26.573 11.578 25.826 18.069 C 25.131 24.1 20.016 28.547 14.087 28.547 C 13.635 28.547 13.179 28.521 12.719 28.468 C 6.282 27.727 1.652 21.949 2.305 15.522 C 2.803 15.703 3.329 15.83 3.879 15.893 C 4.148 15.925 4.416 15.94 4.681 15.94 C 8.153 15.94 11.15 13.335 11.557 9.802 C 11.74 8.208 11.366 6.679 10.591 5.408 C 11.697 5.067 12.864 4.884 14.065 4.884 Z " fill="rgb(55,53,53)"/><text transform="matrix(1.583,0,0,1.69,31.849,25.077)" style="font-family:'Open Sans';font-weight:400;font-size:16px;font-style:normal;font-variant-ligatures:none;fill:[Object GCMYKColor];stroke:none;">bis[ku]it</text></g></svg>