<?xml version="1.0" encoding="UTF-8" standalone="no"?><!-- Generator: Gravit.io --><svg xmlns="http://www.w3.org/2000/svg" xmlns:xlink="http://www.w3.org/1999/xlink" style="isolation:isolate" viewBox="0 0 120 120" width="120pt" height="120pt"><defs><clipPath id="_clipPath_kVqoPgBjWoJRL1DmmSYLCXohub0ZHewY"><rect width="120" height="120"/></clipPath></defs><g clip-path="url(#_clipPath_kVqoPgBjWoJRL1DmmSYLCXohub0ZHewY)"><path d=" M 48.303 69.356 C 48.394 68.515 49.112 67.913 49.904 68.009 C 50.699 68.106 51.268 68.866 51.176 69.707 C 51.085 70.547 50.368 71.15 49.574 71.054 C 48.781 70.957 48.211 70.197 48.303 69.356 Z " fill="none" vector-effect="non-scaling-stroke" stroke-width="1.8" stroke="rgb(33,33,33)" stroke-linejoin="miter" stroke-linecap="square" stroke-miterlimit="3"/><path d=" M 67.89 83.63 C 67.981 82.789 68.698 82.186 69.492 82.283 C 70.287 82.379 70.856 83.139 70.764 83.981 C 70.672 84.821 69.956 85.424 69.161 85.327 C 68.368 85.23 67.799 84.471 67.89 83.63 Z " fill="none" vector-effect="non-scaling-stroke" stroke-width="1.8" stroke="rgb(33,33,33)" stroke-linejoin="miter" stroke-linecap="square" stroke-miterlimit="3"/><path d=" M 64.954 41.679 C 65.045 40.839 65.763 40.236 66.556 40.331 C 67.35 40.429 67.919 41.189 67.828 42.03 C 67.737 42.871 67.019 43.473 66.226 43.376 C 65.432 43.28 64.863 42.52 64.954 41.679 Z " fill="none" vector-effect="non-scaling-stroke" stroke-width="1.8" stroke="rgb(33,33,33)" stroke-linejoin="miter" stroke-linecap="square" stroke-miterlimit="3"/><path d=" M 76.364 62.725 C 76.456 61.884 77.173 61.281 77.966 61.378 C 78.76 61.475 79.33 62.235 79.237 63.076 C 79.146 63.916 78.429 64.52 77.635 64.423 C 76.842 64.326 76.272 63.566 76.364 62.725 Z " fill="none" vector-effect="non-scaling-stroke" stroke-width="1.8" stroke="rgb(33,33,33)" stroke-linejoin="miter" stroke-linecap="square" stroke-miterlimit="3"/><path d=" M 59.975 16 C 55.792 16 51.641 16.663 47.636 17.972 C 45.93 18.529 44.563 19.889 43.93 21.657 C 43.298 23.425 43.471 25.404 44.4 27.019 C 46.201 30.151 46.944 33.733 46.548 37.377 C 45.65 45.63 39.073 51.855 31.247 51.855 C 30.653 51.855 30.05 51.818 29.455 51.745 C 28.268 51.601 27.089 51.306 25.947 50.867 C 25.307 50.621 24.64 50.5 23.976 50.5 C 22.9 50.5 21.831 50.818 20.897 51.44 C 19.388 52.444 18.4 54.131 18.219 56.01 C 17.097 67.71 20.309 79.204 27.264 88.376 C 34.227 97.558 44.146 103.357 55.191 104.704 C 56.799 104.901 58.431 105 60.042 105 C 81.36 105 99.279 88.058 101.722 65.591 C 104.371 41.215 87.808 19.101 64.802 16.294 C 63.202 16.099 61.578 16 59.975 16 Z  M 59.975 22.13 C 61.35 22.13 62.74 22.213 64.14 22.383 C 84.009 24.808 98.262 43.838 95.974 64.888 C 93.847 84.449 78.189 98.87 60.042 98.87 C 58.658 98.87 57.26 98.787 55.853 98.615 C 36.148 96.211 21.976 77.472 23.975 56.63 C 25.501 57.216 27.111 57.63 28.793 57.834 C 29.618 57.935 30.436 57.984 31.247 57.984 C 41.877 57.984 51.05 49.535 52.296 38.078 C 52.857 32.909 51.712 27.953 49.341 23.829 C 52.723 22.724 56.297 22.13 59.975 22.13 Z " fill="rgb(33,33,33)"/></g></svg>