<?xml version="1.0" encoding="UTF-8" standalone="no"?><!-- Generator: Gravit.io --><svg xmlns="http://www.w3.org/2000/svg" xmlns:xlink="http://www.w3.org/1999/xlink" style="isolation:isolate" viewBox="0 0 155 42" width="155pt" height="42pt"><defs><clipPath id="_clipPath_KTDpxJ1XxMkEgepQm006jMo8f5ZLQmmU"><rect width="155" height="42"/></clipPath></defs><g clip-path="url(#_clipPath_KTDpxJ1XxMkEgepQm006jMo8f5ZLQmmU)"><path d=" M 12.134 24.87 C 12.169 24.562 12.448 24.34 12.757 24.376 C 13.065 24.411 13.287 24.69 13.251 24.999 C 13.216 25.307 12.937 25.529 12.628 25.493 C 12.32 25.458 12.098 25.179 12.134 24.87 Z " fill="none" vector-effect="non-scaling-stroke" stroke-width="1.8" stroke="rgb(33,33,33)" stroke-linejoin="miter" stroke-linecap="square" stroke-miterlimit="3"/><path d=" M 19.749 30.108 C 19.785 29.799 20.063 29.578 20.372 29.614 C 20.681 29.649 20.902 29.928 20.866 30.237 C 20.831 30.545 20.552 30.767 20.243 30.731 C 19.935 30.695 19.714 30.417 19.749 30.108 Z " fill="none" vector-effect="non-scaling-stroke" stroke-width="1.8" stroke="rgb(33,33,33)" stroke-linejoin="miter" stroke-linecap="square" stroke-miterlimit="3"/><path d=" M 18.608 14.714 C 18.643 14.405 18.922 14.184 19.23 14.219 C 19.539 14.255 19.76 14.534 19.725 14.843 C 19.689 15.151 19.41 15.372 19.102 15.337 C 18.793 15.301 18.572 15.022 18.608 14.714 Z " fill="none" vector-effect="non-scaling-stroke" stroke-width="1.8" stroke="rgb(33,33,33)" stroke-linejoin="miter" stroke-linecap="square" stroke-miterlimit="3"/><path d=" M 23.043 22.437 C 23.079 22.128 23.358 21.907 23.666 21.942 C 23.975 21.978 24.196 22.257 24.161 22.565 C 24.125 22.874 23.846 23.095 23.538 23.06 C 23.229 23.024 23.008 22.745 23.043 22.437 Z " fill="none" vector-effect="non-scaling-stroke" stroke-width="1.8" stroke="rgb(33,33,33)" stroke-linejoin="miter" stroke-linecap="square" stroke-miterlimit="3"/><path d=" M 16.672 5.291 C 15.046 5.291 13.432 5.534 11.875 6.014 C 11.212 6.219 10.68 6.717 10.434 7.366 C 10.188 8.015 10.256 8.741 10.617 9.334 C 11.317 10.483 11.606 11.798 11.452 13.135 C 11.103 16.164 8.546 18.448 5.503 18.448 C 5.272 18.448 5.038 18.434 4.807 18.408 C 4.345 18.355 3.887 18.246 3.443 18.085 C 3.194 17.995 2.934 17.951 2.676 17.951 C 2.258 17.951 1.843 18.067 1.479 18.295 C 0.893 18.664 0.508 19.283 0.438 19.973 C 0.002 24.266 1.251 28.484 3.955 31.85 C 6.662 35.219 10.518 37.347 14.812 37.842 C 15.437 37.914 16.072 37.95 16.698 37.95 C 24.986 37.95 31.952 31.733 32.902 23.488 C 33.932 14.543 27.493 6.429 18.548 5.398 C 17.926 5.327 17.295 5.291 16.672 5.291 Z  M 16.672 7.54 C 17.206 7.54 17.747 7.57 18.291 7.633 C 26.016 8.523 31.557 15.506 30.667 23.231 C 29.84 30.409 23.753 35.701 16.698 35.701 C 16.16 35.701 15.616 35.67 15.069 35.607 C 7.408 34.725 1.899 27.849 2.676 20.2 C 3.269 20.415 3.895 20.567 4.549 20.642 C 4.87 20.679 5.188 20.697 5.503 20.697 C 9.636 20.697 13.202 17.597 13.686 13.392 C 13.904 11.496 13.459 9.677 12.537 8.164 C 13.853 7.758 15.242 7.54 16.672 7.54 Z " fill="rgb(33,33,33)"/><text transform="matrix(1.884,0,0,2.012,37.835,31.571)" style="font-family:'Open Sans';font-weight:400;font-size:16px;font-style:normal;font-variant-ligatures:none;fill:#212121;stroke:none;">bis[ku]it</text></g></svg>